<svg xmlns="http://www.w3.org/2000/svg" xmlns:xlink="http://www.w3.org/1999/xlink"><polygon points="0,200 0,100 1,101 2,102 3,101 4,102 5,101 6,100 7,99 8,98 9,99 10,98 11,99 12,100 13,99 14,100 15,99 16,98 17,99 18,100 19,101 20,102 21,103 22,104 23,105 24,106 25,107 26,108 27,107 28,108 29,107 30,106 31,105 32,104 33,103 34,104 35,103 36,104 37,105 38,106 39,105 40,106 41,105 42,106 43,105 44,106 45,105 46,106 47,105 48,104 49,105 50,106 51,107 52,108 53,109 54,108 55,109 56,108 57,107 58,106 59,107 60,108 61,107 62,106 63,105 64,106 65,105 66,106 67,105 68,104 69,105 70,106 71,105 72,104 73,103 74,104 75,103 76,102 77,101 78,100 79,101 80,100 81,101 82,100 83,99 84,98 85,97 86,96 87,97 88,96 89,97 90,96 91,95 92,94 93,95 94,96 95,95 96,96 97,97 98,96 99,95 100,96 101,97 102,98 103,99 104,98 105,97 106,98 107,99 108,100 109,99 110,100 111,101 112,100 113,101 114,100 115,101 116,100 117,99 118,100 119,99 120,98 121,99 122,100 123,101 124,100 125,99 126,100 127,101 128,102 129,103 130,102 131,103 132,104 133,103 134,102 135,103 136,104 137,103 138,102 139,103 140,102 141,101 142,100 143,99 144,100 145,99 146,98 147,97 148,96 149,95 150,96 151,97 152,98 153,97 154,98 155,97 156,98 157,97 158,96 159,97 160,98 161,99 162,100 163,101 164,100 165,99 166,98 167,99 168,98 169,97 170,96 171,97 172,98 173,97 174,98 175,99 176,100 177,99 178,100 179,101 180,100 181,101 182,102 183,103 184,104 185,105 186,106 187,105 188,104 189,105 190,106 191,105 192,106 193,105 194,104 195,105 196,104 197,103 198,104 199,105 200,104 201,105 202,106 203,107 204,106 205,105 206,106 207,107 208,108 209,109 210,110 211,109 212,108 213,109 214,108 215,109 216,108 217,107 218,106 219,105 220,106 221,107 222,108 223,109 224,108 225,107 226,108 227,107 228,106 229,105 230,104 231,105 232,106 233,105 234,104 235,103 236,104 237,105 238,106 239,105 240,104 241,103 242,102 243,103 244,104 245,103 246,104 247,105 248,106 249,107 250,106 251,107 252,106 253,107 254,106 255,107 256,108 257,109 258,108 259,107 260,108 261,107 262,106 263,105 264,106 265,107 266,106 267,107 268,106 269,107 270,106 271,107 272,106 273,105 274,106 275,105 276,104 277,105 278,104 279,105 280,106 281,105 282,104 283,105 284,106 285,105 286,104 287,103 288,104 289,105 290,106 291,107 292,108 293,107 294,108 295,109 296,108 297,107 298,108 299,107 300,106 301,107 302,106 303,107 304,108 305,109 306,110 307,111 308,110 309,111 310,112 311,111 312,110 313,111 314,110 315,109 316,108 317,107 318,106 319,105 320,106 321,107 322,106 323,107 324,106 325,105 326,104 327,105 328,106 329,105 330,106 331,107 332,108 333,107 334,108 335,107 336,106 337,105 338,104 339,105 340,106 341,105 342,106 343,105 344,104 345,103 346,102 347,101 348,102 349,101 350,102 351,101 352,100 353,99 354,100 355,101 356,102 357,101 358,102 359,103 360,104 361,103 362,104 363,103 364,104 365,103 366,104 367,103 368,104 369,105 370,104 371,105 372,106 373,105 374,104 375,103 376,102 377,101 378,100 379,99 380,100 381,99 382,100 383,101 384,102 385,103 386,104 387,103 388,104 389,105 390,104 391,103 392,102 393,101 394,102 395,103 396,104 397,105 398,106 399,107 400,200 " style="fill:rgb(195,190,14);stroke:rgb(95,90,0)"></polygon><polygon points="0,200 0,100 1,101 2,102 3,103 4,102 5,103 6,102 7,101 8,100 9,101 10,100 11,99 12,98 13,97 14,96 15,97 16,96 17,97 18,98 19,97 20,98 21,97 22,96 23,95 24,94 25,93 26,94 27,95 28,96 29,95 30,96 31,97 32,98 33,99 34,100 35,99 36,98 37,99 38,100 39,101 40,102 41,101 42,100 43,101 44,102 45,101 46,100 47,101 48,100 49,99 50,100 51,99 52,100 53,101 54,100 55,101 56,100 57,99 58,98 59,97 60,98 61,97 62,98 63,99 64,98 65,97 66,96 67,95 68,96 69,97 70,98 71,97 72,98 73,99 74,100 75,101 76,100 77,101 78,100 79,101 80,100 81,99 82,98 83,97 84,98 85,99 86,100 87,99 88,98 89,99 90,100 91,101 92,102 93,103 94,102 95,101 96,100 97,101 98,102 99,103 100,104 101,105 102,104 103,105 104,104 105,105 106,106 107,107 108,108 109,109 110,110 111,111 112,110 113,111 114,110 115,109 116,110 117,111 118,110 119,111 120,112 121,111 122,112 123,113 124,114 125,113 126,114 127,115 128,114 129,113 130,114 131,115 132,114 133,115 134,114 135,113 136,112 137,111 138,112 139,113 140,112 141,111 142,112 143,113 144,112 145,113 146,114 147,113 148,112 149,113 150,112 151,111 152,112 153,113 154,114 155,113 156,114 157,113 158,112 159,113 160,112 161,113 162,112 163,111 164,112 165,111 166,112 167,113 168,112 169,111 170,110 171,111 172,112 173,113 174,112 175,113 176,112 177,113 178,112 179,113 180,114 181,115 182,116 183,117 184,116 185,115 186,116 187,115 188,114 189,115 190,116 191,115 192,114 193,113 194,112 195,113 196,114 197,115 198,114 199,113 200,114 201,113 202,112 203,111 204,110 205,109 206,110 207,111 208,110 209,109 210,108 211,107 212,106 213,105 214,106 215,107 216,106 217,107 218,108 219,107 220,108 221,109 222,108 223,107 224,106 225,107 226,106 227,107 228,106 229,107 230,106 231,107 232,108 233,109 234,108 235,107 236,106 237,107 238,106 239,105 240,106 241,105 242,106 243,107 244,108 245,109 246,110 247,109 248,108 249,107 250,106 251,107 252,106 253,107 254,108 255,107 256,106 257,105 258,106 259,105 260,106 261,105 262,104 263,105 264,104 265,105 266,104 267,103 268,104 269,103 270,102 271,101 272,102 273,101 274,100 275,99 276,100 277,99 278,98 279,99 280,100 281,101 282,100 283,101 284,102 285,101 286,100 287,101 288,100 289,99 290,100 291,101 292,100 293,99 294,98 295,97 296,98 297,97 298,96 299,97 300,96 301,97 302,96 303,97 304,96 305,95 306,94 307,93 308,92 309,93 310,92 311,93 312,94 313,95 314,94 315,95 316,96 317,95 318,94 319,95 320,96 321,95 322,94 323,95 324,96 325,97 326,96 327,95 328,96 329,97 330,98 331,99 332,98 333,97 334,96 335,95 336,96 337,95 338,96 339,95 340,96 341,97 342,96 343,95 344,96 345,95 346,96 347,97 348,98 349,99 350,100 351,99 352,100 353,99 354,100 355,99 356,98 357,97 358,98 359,97 360,96 361,97 362,96 363,95 364,96 365,95 366,94 367,93 368,94 369,95 370,96 371,95 372,96 373,95 374,94 375,93 376,92 377,93 378,94 379,95 380,96 381,95 382,96 383,97 384,98 385,97 386,98 387,97 388,98 389,97 390,98 391,99 392,98 393,97 394,96 395,97 396,98 397,99 398,98 399,99 400,200 " style="fill:rgb(0,187,194);stroke:rgb(0,87,94)"></polygon><polygon points="0,200 0,100 1,99 2,98 3,97 4,96 5,95 6,94 7,95 8,94 9,95 10,94 11,93 12,94 13,93 14,94 15,93 16,94 17,95 18,96 19,95 20,94 21,95 22,96 23,95 24,94 25,93 26,92 27,91 28,92 29,93 30,94 31,93 32,94 33,95 34,94 35,95 36,96 37,97 38,98 39,97 40,98 41,97 42,96 43,95 44,96 45,95 46,94 47,93 48,92 49,91 50,90 51,91 52,90 53,91 54,90 55,91 56,90 57,89 58,88 59,87 60,86 61,87 62,86 63,85 64,84 65,83 66,82 67,83 68,82 69,83 70,84 71,85 72,86 73,85 74,84 75,85 76,86 77,85 78,84 79,85 80,86 81,85 82,86 83,87 84,88 85,87 86,86 87,87 88,88 89,87 90,88 91,89 92,90 93,89 94,90 95,91 96,90 97,91 98,90 99,91 100,92 101,91 102,90 103,89 104,90 105,89 106,88 107,87 108,86 109,87 110,88 111,89 112,88 113,89 114,90 115,89 116,90 117,91 118,92 119,91 120,92 121,93 122,94 123,95 124,94 125,95 126,96 127,97 128,96 129,95 130,94 131,93 132,92 133,91 134,90 135,91 136,90 137,91 138,90 139,91 140,90 141,91 142,90 143,91 144,92 145,93 146,92 147,93 148,92 149,93 150,92 151,93 152,92 153,91 154,90 155,91 156,92 157,93 158,92 159,91 160,92 161,91 162,90 163,89 164,88 165,87 166,88 167,89 168,88 169,89 170,90 171,91 172,92 173,91 174,90 175,89 176,88 177,89 178,88 179,89 180,90 181,89 182,88 183,89 184,90 185,91 186,92 187,93 188,94 189,93 190,92 191,93 192,94 193,93 194,94 195,93 196,94 197,93 198,92 199,93 200,92 201,91 202,90 203,91 204,90 205,91 206,92 207,91 208,92 209,91 210,90 211,89 212,90 213,89 214,88 215,87 216,88 217,87 218,88 219,89 220,88 221,87 222,86 223,87 224,86 225,85 226,86 227,85 228,84 229,83 230,82 231,81 232,80 233,79 234,78 235,77 236,78 237,79 238,80 239,79 240,80 241,81 242,82 243,81 244,80 245,79 246,78 247,77 248,78 249,77 250,76 251,75 252,74 253,75 254,76 255,75 256,76 257,75 258,76 259,75 260,76 261,75 262,76 263,77 264,76 265,75 266,74 267,75 268,74 269,73 270,74 271,73 272,72 273,71 274,72 275,71 276,70 277,71 278,70 279,69 280,70 281,69 282,70 283,71 284,70 285,69 286,70 287,69 288,70 289,69 290,68 291,67 292,66 293,65 294,66 295,67 296,68 297,69 298,70 299,71 300,72 301,71 302,72 303,71 304,70 305,71 306,72 307,73 308,72 309,73 310,74 311,73 312,74 313,73 314,72 315,71 316,72 317,71 318,70 319,69 320,68 321,67 322,66 323,65 324,66 325,65 326,66 327,67 328,66 329,67 330,66 331,67 332,66 333,65 334,66 335,65 336,64 337,65 338,66 339,67 340,68 341,69 342,68 343,67 344,66 345,65 346,66 347,67 348,68 349,69 350,70 351,69 352,68 353,67 354,68 355,67 356,66 357,67 358,66 359,67 360,68 361,69 362,70 363,71 364,72 365,73 366,74 367,73 368,74 369,73 370,74 371,73 372,74 373,75 374,76 375,75 376,74 377,75 378,74 379,73 380,72 381,71 382,72 383,71 384,70 385,71 386,70 387,71 388,72 389,73 390,72 391,73 392,72 393,73 394,72 395,73 396,74 397,75 398,76 399,75 400,200 " style="fill:rgb(46,43,56);stroke:rgb(0,0,0)"></polygon><polygon points="0,200 0,100 1,99 2,98 3,97 4,98 5,99 6,100 7,101 8,100 9,99 10,98 11,97 12,98 13,99 14,100 15,101 16,102 17,101 18,100 19,99 20,100 21,99 22,98 23,97 24,96 25,97 26,98 27,99 28,100 29,101 30,100 31,101 32,102 33,101 34,100 35,99 36,100 37,99 38,98 39,99 40,100 41,99 42,98 43,97 44,96 45,97 46,98 47,97 48,96 49,95 50,96 51,95 52,96 53,95 54,94 55,95 56,96 57,95 58,96 59,97 60,96 61,97 62,96 63,97 64,98 65,99 66,100 67,99 68,98 69,97 70,96 71,95 72,96 73,95 74,94 75,93 76,94 77,95 78,96 79,97 80,96 81,95 82,94 83,93 84,94 85,93 86,92 87,93 88,94 89,93 90,92 91,93 92,92 93,93 94,92 95,91 96,92 97,91 98,92 99,91 100,90 101,91 102,92 103,93 104,92 105,93 106,94 107,93 108,94 109,93 110,94 111,93 112,94 113,93 114,92 115,91 116,92 117,91 118,92 119,91 120,90 121,89 122,90 123,91 124,92 125,91 126,90 127,89 128,88 129,87 130,88 131,87 132,88 133,87 134,88 135,87 136,88 137,89 138,88 139,87 140,86 141,87 142,88 143,89 144,88 145,87 146,88 147,87 148,86 149,87 150,88 151,87 152,86 153,85 154,86 155,87 156,86 157,87 158,86 159,85 160,84 161,85 162,84 163,83 164,82 165,83 166,84 167,85 168,86 169,85 170,86 171,87 172,86 173,87 174,88 175,87 176,86 177,85 178,86 179,85 180,84 181,83 182,82 183,81 184,80 185,79 186,78 187,79 188,78 189,77 190,78 191,79 192,80 193,81 194,80 195,81 196,80 197,79 198,78 199,77 200,78 201,79 202,78 203,77 204,76 205,75 206,76 207,77 208,78 209,79 210,80 211,79 212,80 213,81 214,82 215,83 216,84 217,83 218,84 219,83 220,84 221,83 222,82 223,83 224,82 225,83 226,84 227,85 228,86 229,87 230,86 231,87 232,88 233,89 234,88 235,89 236,90 237,91 238,90 239,89 240,90 241,91 242,90 243,89 244,88 245,87 246,86 247,87 248,88 249,87 250,86 251,85 252,84 253,85 254,86 255,85 256,84 257,83 258,84 259,85 260,86 261,85 262,86 263,85 264,86 265,85 266,86 267,85 268,86 269,87 270,86 271,85 272,86 273,85 274,84 275,85 276,84 277,83 278,84 279,83 280,82 281,81 282,82 283,81 284,80 285,81 286,80 287,81 288,82 289,81 290,82 291,81 292,82 293,83 294,82 295,81 296,80 297,79 298,78 299,77 300,76 301,75 302,74 303,75 304,76 305,77 306,78 307,77 308,78 309,77 310,76 311,77 312,78 313,79 314,78 315,77 316,78 317,79 318,78 319,79 320,78 321,79 322,78 323,77 324,76 325,77 326,76 327,77 328,76 329,75 330,74 331,73 332,74 333,73 334,72 335,71 336,72 337,73 338,72 339,73 340,72 341,71 342,72 343,71 344,72 345,73 346,74 347,73 348,74 349,73 350,72 351,71 352,72 353,73 354,72 355,73 356,72 357,71 358,72 359,73 360,72 361,73 362,74 363,73 364,74 365,73 366,72 367,73 368,74 369,73 370,72 371,73 372,72 373,71 374,70 375,71 376,70 377,71 378,70 379,71 380,72 381,71 382,72 383,71 384,70 385,71 386,70 387,69 388,70 389,69 390,68 391,69 392,68 393,69 394,70 395,69 396,68 397,69 398,68 399,67 400,200 " style="fill:rgb(37,70,57);stroke:rgb(0,0,0)"></polygon><polygon points="0,200 0,100 1,99 2,98 3,97 4,96 5,95 6,94 7,95 8,96 9,95 10,94 11,93 12,92 13,93 14,94 15,93 16,92 17,93 18,92 19,91 20,90 21,91 22,92 23,93 24,94 25,93 26,94 27,95 28,94 29,95 30,94 31,95 32,94 33,95 34,96 35,95 36,94 37,95 38,94 39,95 40,94 41,93 42,94 43,93 44,94 45,95 46,94 47,93 48,94 49,93 50,92 51,91 52,92 53,91 54,92 55,91 56,90 57,89 58,88 59,87 60,88 61,89 62,88 63,87 64,88 65,87 66,86 67,87 68,88 69,89 70,90 71,91 72,90 73,89 74,90 75,89 76,88 77,87 78,88 79,89 80,90 81,89 82,90 83,89 84,90 85,89 86,90 87,91 88,90 89,91 90,92 91,93 92,92 93,91 94,92 95,93 96,92 97,91 98,90 99,91 100,92 101,93 102,94 103,95 104,96 105,95 106,94 107,93 108,94 109,93 110,92 111,93 112,94 113,93 114,92 115,91 116,90 117,91 118,90 119,91 120,90 121,91 122,92 123,91 124,92 125,91 126,92 127,93 128,92 129,93 130,94 131,93 132,94 133,93 134,92 135,93 136,92 137,91 138,92 139,91 140,92 141,91 142,92 143,93 144,92 145,93 146,92 147,93 148,92 149,91 150,90 151,91 152,92 153,91 154,90 155,91 156,90 157,91 158,90 159,89 160,90 161,91 162,90 163,91 164,90 165,89 166,90 167,89 168,90 169,91 170,92 171,91 172,92 173,93 174,94 175,93 176,92 177,91 178,92 179,93 180,92 181,91 182,92 183,93 184,92 185,93 186,94 187,95 188,94 189,93 190,94 191,95 192,94 193,95 194,94 195,95 196,94 197,93 198,94 199,93 200,92 201,91 202,90 203,89 204,90 205,89 206,88 207,87 208,88 209,87 210,86 211,87 212,88 213,89 214,88 215,89 216,90 217,91 218,90 219,89 220,90 221,89 222,90 223,89 224,88 225,89 226,90 227,89 228,88 229,87 230,86 231,85 232,84 233,85 234,84 235,85 236,86 237,87 238,88 239,89 240,90 241,89 242,90 243,91 244,92 245,93 246,92 247,91 248,90 249,89 250,90 251,91 252,92 253,93 254,92 255,93 256,94 257,95 258,96 259,95 260,96 261,95 262,96 263,97 264,96 265,95 266,94 267,95 268,94 269,93 270,94 271,93 272,94 273,93 274,92 275,93 276,92 277,93 278,94 279,95 280,94 281,95 282,94 283,95 284,96 285,97 286,96 287,95 288,96 289,97 290,98 291,97 292,98 293,97 294,96 295,97 296,96 297,95 298,96 299,95 300,94 301,93 302,92 303,93 304,92 305,93 306,92 307,93 308,94 309,95 310,96 311,97 312,98 313,99 314,100 315,99 316,98 317,99 318,98 319,99 320,100 321,101 322,100 323,101 324,100 325,99 326,100 327,99 328,98 329,97 330,98 331,99 332,98 333,99 334,98 335,99 336,98 337,99 338,98 339,99 340,100 341,101 342,102 343,103 344,102 345,101 346,100 347,99 348,98 349,97 350,98 351,97 352,96 353,97 354,96 355,97 356,96 357,95 358,96 359,97 360,98 361,97 362,96 363,97 364,98 365,97 366,98 367,99 368,98 369,97 370,98 371,99 372,98 373,99 374,98 375,97 376,96 377,95 378,94 379,93 380,92 381,91 382,92 383,91 384,90 385,89 386,90 387,89 388,88 389,89 390,90 391,89 392,88 393,87 394,88 395,87 396,88 397,89 398,88 399,87 400,200 " style="fill:rgb(249,86,171);stroke:rgb(149,0,71)"></polygon><polygon points="0,200 0,100 1,99 2,100 3,101 4,102 5,103 6,102 7,101 8,100 9,101 10,102 11,103 12,102 13,103 14,104 15,105 16,106 17,105 18,106 19,105 20,106 21,107 22,108 23,107 24,106 25,105 26,106 27,105 28,106 29,105 30,104 31,103 32,104 33,105 34,104 35,105 36,104 37,103 38,104 39,103 40,102 41,103 42,104 43,103 44,102 45,103 46,104 47,105 48,104 49,103 50,102 51,101 52,100 53,99 54,98 55,99 56,100 57,101 58,102 59,101 60,100 61,99 62,98 63,99 64,98 65,97 66,96 67,95 68,94 69,95 70,94 71,95 72,94 73,95 74,96 75,95 76,96 77,95 78,94 79,95 80,96 81,97 82,98 83,99 84,100 85,99 86,100 87,101 88,100 89,99 90,100 91,99 92,98 93,97 94,96 95,97 96,98 97,99 98,100 99,101 100,102 101,101 102,100 103,99 104,100 105,99 106,98 107,99 108,100 109,101 110,100 111,99 112,100 113,101 114,100 115,99 116,98 117,97 118,98 119,97 120,98 121,97 122,98 123,97 124,96 125,97 126,96 127,97 128,96 129,97 130,98 131,99 132,98 133,99 134,98 135,97 136,96 137,97 138,96 139,97 140,96 141,95 142,94 143,93 144,92 145,93 146,92 147,93 148,92 149,93 150,94 151,93 152,94 153,95 154,96 155,97 156,98 157,99 158,98 159,99 160,100 161,101 162,102 163,103 164,102 165,101 166,102 167,103 168,104 169,103 170,102 171,103 172,104 173,105 174,106 175,107 176,108 177,107 178,108 179,109 180,108 181,109 182,108 183,109 184,108 185,109 186,108 187,109 188,110 189,109 190,108 191,109 192,110 193,109 194,108 195,109 196,110 197,111 198,110 199,111 200,110 201,111 202,112 203,111 204,112 205,113 206,114 207,115 208,114 209,113 210,112 211,111 212,110 213,109 214,108 215,107 216,108 217,109 218,110 219,111 220,112 221,113 222,112 223,111 224,110 225,111 226,110 227,111 228,112 229,113 230,114 231,113 232,112 233,113 234,114 235,113 236,112 237,111 238,110 239,111 240,112 241,111 242,110 243,109 244,108 245,109 246,110 247,109 248,110 249,111 250,110 251,111 252,112 253,113 254,114 255,115 256,116 257,117 258,118 259,117 260,116 261,115 262,114 263,115 264,114 265,115 266,114 267,115 268,114 269,115 270,116 271,115 272,114 273,113 274,114 275,113 276,114 277,115 278,116 279,115 280,114 281,115 282,116 283,117 284,118 285,117 286,118 287,117 288,118 289,119 290,118 291,117 292,118 293,119 294,118 295,119 296,118 297,119 298,118 299,117 300,118 301,119 302,120 303,121 304,122 305,121 306,122 307,123 308,122 309,121 310,122 311,121 312,120 313,121 314,122 315,123 316,122 317,123 318,124 319,125 320,124 321,125 322,124 323,123 324,124 325,123 326,124 327,123 328,122 329,123 330,122 331,121 332,120 333,119 334,118 335,117 336,116 337,115 338,116 339,117 340,118 341,117 342,116 343,115 344,116 345,117 346,118 347,119 348,120 349,119 350,120 351,121 352,120 353,121 354,122 355,123 356,122 357,123 358,122 359,123 360,124 361,123 362,124 363,125 364,124 365,123 366,122 367,123 368,122 369,121 370,122 371,121 372,120 373,119 374,118 375,119 376,118 377,119 378,120 379,121 380,122 381,123 382,124 383,125 384,124 385,123 386,124 387,125 388,126 389,125 390,124 391,123 392,122 393,123 394,124 395,125 396,124 397,123 398,122 399,123 400,200 " style="fill:rgb(27,247,4);stroke:rgb(0,147,0)"></polygon><polygon points="0,200 0,100 1,101 2,100 3,99 4,98 5,99 6,98 7,99 8,100 9,101 10,102 11,103 12,104 13,105 14,104 15,103 16,104 17,105 18,106 19,107 20,106 21,107 22,108 23,107 24,108 25,109 26,108 27,109 28,110 29,111 30,112 31,111 32,112 33,111 34,112 35,113 36,112 37,111 38,110 39,109 40,110 41,111 42,112 43,113 44,112 45,111 46,110 47,111 48,110 49,111 50,112 51,111 52,112 53,113 54,112 55,111 56,112 57,113 58,114 59,115 60,116 61,117 62,116 63,115 64,114 65,113 66,112 67,111 68,110 69,109 70,110 71,111 72,110 73,111 74,110 75,109 76,110 77,109 78,108 79,107 80,106 81,107 82,108 83,107 84,106 85,107 86,106 87,107 88,106 89,107 90,106 91,105 92,104 93,105 94,106 95,105 96,106 97,107 98,106 99,105 100,106 101,105 102,104 103,103 104,104 105,103 106,104 107,105 108,106 109,105 110,106 111,107 112,108 113,107 114,106 115,105 116,106 117,107 118,108 119,109 120,108 121,109 122,110 123,109 124,110 125,109 126,108 127,109 128,110 129,109 130,110 131,111 132,112 133,113 134,112 135,111 136,112 137,111 138,110 139,111 140,110 141,109 142,108 143,107 144,106 145,105 146,106 147,107 148,106 149,107 150,106 151,107 152,106 153,107 154,106 155,105 156,106 157,105 158,106 159,105 160,104 161,105 162,104 163,105 164,104 165,105 166,106 167,107 168,108 169,107 170,108 171,107 172,108 173,107 174,108 175,107 176,108 177,109 178,110 179,109 180,108 181,109 182,110 183,109 184,110 185,109 186,110 187,109 188,108 189,107 190,108 191,109 192,108 193,107 194,106 195,107 196,106 197,105 198,104 199,105 200,106 201,105 202,106 203,105 204,106 205,107 206,106 207,107 208,106 209,105 210,106 211,105 212,106 213,105 214,106 215,105 216,104 217,105 218,104 219,103 220,104 221,105 222,106 223,105 224,104 225,105 226,106 227,107 228,106 229,107 230,106 231,107 232,106 233,105 234,106 235,105 236,104 237,103 238,102 239,101 240,102 241,103 242,104 243,103 244,104 245,103 246,104 247,105 248,106 249,105 250,104 251,103 252,102 253,103 254,104 255,103 256,104 257,103 258,104 259,105 260,106 261,107 262,108 263,107 264,106 265,105 266,106 267,105 268,104 269,105 270,106 271,107 272,106 273,105 274,104 275,103 276,104 277,105 278,106 279,105 280,104 281,105 282,106 283,105 284,106 285,105 286,106 287,107 288,108 289,109 290,110 291,111 292,110 293,109 294,110 295,109 296,110 297,109 298,110 299,109 300,108 301,107 302,106 303,105 304,106 305,107 306,106 307,105 308,104 309,103 310,104 311,105 312,104 313,105 314,104 315,103 316,102 317,101 318,102 319,101 320,100 321,101 322,100 323,101 324,102 325,101 326,100 327,99 328,98 329,97 330,96 331,95 332,96 333,95 334,94 335,95 336,96 337,95 338,96 339,97 340,96 341,95 342,96 343,95 344,96 345,97 346,98 347,99 348,100 349,99 350,100 351,99 352,100 353,99 354,98 355,99 356,98 357,97 358,98 359,97 360,96 361,97 362,98 363,97 364,98 365,97 366,98 367,97 368,96 369,97 370,96 371,95 372,96 373,97 374,98 375,99 376,98 377,99 378,98 379,99 380,98 381,99 382,100 383,101 384,102 385,101 386,102 387,101 388,100 389,101 390,102 391,101 392,102 393,103 394,102 395,101 396,100 397,101 398,102 399,103 400,200 " style="fill:rgb(178,9,172);stroke:rgb(78,0,72)"></polygon><polygon points="0,200 0,100 1,101 2,100 3,99 4,100 5,101 6,100 7,99 8,98 9,97 10,98 11,97 12,96 13,97 14,96 15,97 16,98 17,97 18,98 19,97 20,98 21,99 22,100 23,101 24,100 25,99 26,100 27,99 28,98 29,99 30,100 31,99 32,98 33,99 34,100 35,101 36,100 37,99 38,100 39,101 40,102 41,101 42,102 43,101 44,102 45,103 46,102 47,101 48,100 49,101 50,100 51,101 52,102 53,103 54,102 55,103 56,102 57,103 58,102 59,103 60,104 61,103 62,102 63,103 64,104 65,103 66,104 67,105 68,106 69,107 70,108 71,109 72,108 73,109 74,108 75,107 76,108 77,107 78,108 79,109 80,110 81,109 82,110 83,109 84,110 85,111 86,112 87,111 88,110 89,111 90,112 91,111 92,112 93,113 94,112 95,113 96,114 97,115 98,114 99,115 100,114 101,115 102,114 103,115 104,114 105,113 106,112 107,113 108,112 109,113 110,114 111,113 112,114 113,115 114,114 115,113 116,114 117,115 118,114 119,113 120,112 121,113 122,112 123,113 124,112 125,111 126,110 127,111 128,110 129,109 130,110 131,111 132,112 133,111 134,112 135,111 136,112 137,111 138,112 139,113 140,114 141,113 142,112 143,113 144,112 145,111 146,110 147,109 148,110 149,111 150,110 151,109 152,110 153,111 154,112 155,111 156,110 157,111 158,112 159,111 160,112 161,113 162,114 163,113 164,114 165,115 166,114 167,113 168,112 169,113 170,112 171,111 172,112 173,113 174,112 175,111 176,110 177,111 178,110 179,111 180,112 181,113 182,114 183,113 184,114 185,115 186,114 187,113 188,112 189,111 190,112 191,111 192,112 193,113 194,112 195,113 196,114 197,115 198,116 199,115 200,114 201,115 202,114 203,115 204,114 205,115 206,114 207,115 208,114 209,113 210,114 211,113 212,112 213,113 214,112 215,113 216,112 217,111 218,112 219,113 220,114 221,115 222,114 223,115 224,114 225,115 226,114 227,115 228,116 229,115 230,114 231,115 232,116 233,117 234,118 235,119 236,120 237,121 238,122 239,123 240,122 241,121 242,122 243,121 244,120 245,121 246,120 247,119 248,120 249,119 250,118 251,117 252,118 253,119 254,120 255,119 256,120 257,121 258,120 259,121 260,122 261,121 262,122 263,123 264,124 265,123 266,124 267,123 268,122 269,123 270,124 271,123 272,124 273,125 274,124 275,123 276,122 277,123 278,124 279,123 280,124 281,123 282,122 283,123 284,122 285,121 286,122 287,121 288,120 289,121 290,122 291,121 292,120 293,121 294,120 295,119 296,118 297,117 298,118 299,117 300,118 301,119 302,120 303,121 304,120 305,119 306,118 307,117 308,118 309,117 310,118 311,117 312,116 313,117 314,118 315,117 316,118 317,117 318,116 319,117 320,118 321,117 322,118 323,119 324,120 325,119 326,118 327,117 328,118 329,119 330,118 331,117 332,116 333,115 334,114 335,115 336,116 337,117 338,116 339,117 340,118 341,119 342,120 343,121 344,120 345,121 346,122 347,121 348,120 349,119 350,118 351,117 352,116 353,117 354,116 355,115 356,114 357,113 358,114 359,113 360,114 361,113 362,112 363,113 364,114 365,113 366,112 367,111 368,110 369,109 370,110 371,111 372,110 373,109 374,108 375,107 376,106 377,105 378,106 379,105 380,106 381,107 382,106 383,107 384,108 385,107 386,106 387,107 388,108 389,109 390,110 391,111 392,110 393,109 394,110 395,111 396,110 397,109 398,110 399,109 400,200 " style="fill:rgb(145,114,40);stroke:rgb(45,14,0)"></polygon><polygon points="0,200 0,100 1,99 2,100 3,101 4,100 5,99 6,100 7,99 8,100 9,101 10,100 11,99 12,100 13,99 14,100 15,101 16,100 17,101 18,102 19,103 20,104 21,103 22,102 23,101 24,102 25,103 26,104 27,103 28,102 29,101 30,102 31,101 32,102 33,103 34,102 35,103 36,102 37,101 38,102 39,103 40,104 41,105 42,104 43,103 44,104 45,105 46,104 47,105 48,104 49,103 50,104 51,105 52,104 53,103 54,104 55,105 56,106 57,107 58,106 59,107 60,108 61,109 62,110 63,111 64,112 65,111 66,110 67,109 68,110 69,109 70,108 71,107 72,108 73,107 74,106 75,107 76,108 77,107 78,108 79,109 80,110 81,109 82,110 83,109 84,110 85,111 86,112 87,113 88,112 89,111 90,110 91,109 92,110 93,111 94,110 95,111 96,112 97,111 98,110 99,111 100,110 101,111 102,110 103,109 104,110 105,111 106,110 107,111 108,112 109,113 110,114 111,115 112,116 113,115 114,116 115,115 116,114 117,115 118,114 119,115 120,116 121,117 122,116 123,115 124,114 125,113 126,114 127,115 128,114 129,115 130,114 131,115 132,116 133,117 134,116 135,115 136,114 137,115 138,114 139,115 140,116 141,115 142,114 143,113 144,112 145,111 146,110 147,109 148,108 149,109 150,108 151,107 152,108 153,107 154,106 155,105 156,104 157,105 158,104 159,103 160,102 161,103 162,102 163,101 164,100 165,99 166,100 167,99 168,100 169,99 170,100 171,99 172,98 173,97 174,96 175,97 176,98 177,97 178,98 179,97 180,96 181,95 182,94 183,93 184,92 185,93 186,92 187,91 188,90 189,89 190,90 191,89 192,90 193,91 194,92 195,93 196,92 197,91 198,92 199,91 200,92 201,91 202,90 203,89 204,88 205,89 206,88 207,87 208,88 209,87 210,88 211,87 212,88 213,87 214,88 215,87 216,86 217,87 218,88 219,87 220,88 221,89 222,90 223,91 224,90 225,91 226,92 227,91 228,92 229,91 230,92 231,93 232,92 233,91 234,92 235,91 236,90 237,89 238,88 239,89 240,88 241,87 242,86 243,85 244,84 245,85 246,86 247,85 248,84 249,83 250,84 251,85 252,86 253,87 254,88 255,89 256,88 257,89 258,90 259,91 260,90 261,91 262,90 263,91 264,90 265,91 266,90 267,91 268,92 269,91 270,90 271,91 272,92 273,91 274,90 275,89 276,88 277,87 278,86 279,85 280,84 281,85 282,86 283,85 284,86 285,87 286,88 287,89 288,90 289,91 290,90 291,91 292,90 293,91 294,90 295,91 296,92 297,93 298,92 299,91 300,92 301,93 302,92 303,93 304,94 305,95 306,96 307,95 308,94 309,93 310,94 311,95 312,94 313,93 314,92 315,93 316,92 317,93 318,94 319,93 320,94 321,95 322,94 323,95 324,96 325,97 326,98 327,97 328,96 329,97 330,96 331,95 332,94 333,95 334,94 335,95 336,94 337,95 338,94 339,95 340,94 341,95 342,96 343,95 344,94 345,95 346,94 347,93 348,92 349,93 350,94 351,93 352,94 353,95 354,96 355,97 356,98 357,97 358,98 359,97 360,96 361,97 362,98 363,97 364,98 365,99 366,98 367,99 368,98 369,97 370,96 371,97 372,98 373,99 374,98 375,97 376,96 377,95 378,96 379,95 380,96 381,97 382,98 383,97 384,96 385,95 386,94 387,95 388,96 389,95 390,96 391,97 392,98 393,99 394,98 395,97 396,98 397,99 398,100 399,99 400,200 " style="fill:rgb(205,121,147);stroke:rgb(105,21,47)"></polygon><polygon points="0,200 0,100 1,99 2,98 3,97 4,98 5,99 6,100 7,101 8,102 9,103 10,104 11,103 12,104 13,103 14,102 15,103 16,104 17,103 18,102 19,101 20,100 21,99 22,100 23,99 24,100 25,99 26,100 27,99 28,100 29,99 30,98 31,97 32,96 33,95 34,96 35,97 36,96 37,97 38,96 39,97 40,98 41,97 42,98 43,99 44,98 45,99 46,100 47,101 48,102 49,101 50,102 51,103 52,104 53,103 54,104 55,103 56,104 57,105 58,104 59,103 60,102 61,103 62,102 63,103 64,102 65,103 66,102 67,101 68,100 69,99 70,98 71,97 72,96 73,95 74,94 75,93 76,94 77,95 78,96 79,97 80,98 81,97 82,98 83,97 84,96 85,95 86,96 87,95 88,96 89,95 90,96 91,95 92,96 93,95 94,96 95,97 96,98 97,99 98,100 99,101 100,102 101,101 102,102 103,101 104,100 105,101 106,100 107,99 108,100 109,101 110,102 111,103 112,102 113,103 114,104 115,103 116,104 117,105 118,106 119,107 120,108 121,107 122,108 123,107 124,106 125,107 126,106 127,105 128,104 129,103 130,104 131,103 132,102 133,101 134,102 135,101 136,102 137,101 138,100 139,101 140,100 141,99 142,98 143,99 144,98 145,99 146,98 147,97 148,98 149,99 150,100 151,101 152,100 153,101 154,102 155,101 156,102 157,101 158,102 159,101 160,100 161,101 162,100 163,99 164,98 165,99 166,100 167,99 168,98 169,97 170,98 171,99 172,100 173,99 174,100 175,99 176,98 177,97 178,98 179,99 180,100 181,99 182,98 183,97 184,96 185,95 186,96 187,97 188,96 189,97 190,96 191,95 192,96 193,97 194,96 195,97 196,98 197,99 198,98 199,97 200,96 201,97 202,98 203,99 204,100 205,101 206,100 207,99 208,100 209,99 210,100 211,99 212,100 213,101 214,102 215,103 216,102 217,101 218,102 219,103 220,104 221,105 222,106 223,107 224,108 225,107 226,106 227,105 228,106 229,105 230,104 231,103 232,104 233,103 234,104 235,103 236,102 237,101 238,100 239,99 240,98 241,97 242,98 243,97 244,98 245,99 246,100 247,101 248,102 249,103 250,102 251,103 252,102 253,101 254,100 255,101 256,102 257,101 258,102 259,101 260,100 261,101 262,102 263,101 264,102 265,103 266,102 267,101 268,100 269,99 270,100 271,101 272,100 273,101 274,102 275,101 276,100 277,99 278,98 279,97 280,98 281,99 282,100 283,101 284,100 285,99 286,100 287,101 288,100 289,99 290,100 291,101 292,102 293,101 294,100 295,99 296,100 297,99 298,98 299,99 300,98 301,99 302,100 303,101 304,100 305,101 306,102 307,101 308,102 309,101 310,100 311,99 312,98 313,99 314,98 315,99 316,100 317,99 318,100 319,101 320,100 321,101 322,102 323,103 324,104 325,105 326,104 327,105 328,104 329,103 330,104 331,103 332,104 333,105 334,106 335,105 336,104 337,105 338,104 339,105 340,104 341,103 342,104 343,103 344,104 345,105 346,106 347,107 348,108 349,109 350,108 351,109 352,110 353,111 354,112 355,113 356,112 357,111 358,112 359,113 360,112 361,111 362,112 363,111 364,112 365,113 366,112 367,113 368,114 369,113 370,112 371,113 372,114 373,115 374,114 375,115 376,114 377,115 378,116 379,117 380,118 381,119 382,120 383,119 384,118 385,117 386,118 387,117 388,118 389,119 390,120 391,121 392,120 393,119 394,120 395,121 396,120 397,121 398,120 399,119 400,200 " style="fill:rgb(218,106,217);stroke:rgb(118,6,117)"></polygon></svg>